<svg width="1000" height="433" viewBox="0 0 1000 433" fill="none" xmlns="http://www.w3.org/2000/svg">
<path d="M500 0C586.059 0 667.056 7.59345 742.991 22.7804C818.925 37.5779 880.646 60.9424 928.154 92.8738C976.051 124.805 1000 164.914 1000 213.201C1000 261.488 976.051 302.181 928.154 335.28C880.257 367.991 818.146 392.329 741.822 408.294C665.888 424.26 585.28 432.243 500 432.243C413.941 432.243 332.944 424.844 257.009 410.047C181.075 394.86 119.159 371.301 71.2617 339.369C23.7539 307.438 0 267.329 0 219.042C0 170.755 23.9486 130.257 71.8458 97.5467C119.743 64.4471 181.659 39.9143 257.593 23.9486C333.917 7.98287 414.72 0 500 0ZM501.168 349.299C542.056 349.299 582.944 345.016 623.832 336.449C665.109 327.882 699.766 313.668 727.804 293.808C755.841 273.949 769.86 248.053 769.86 216.122C769.86 184.19 755.841 158.294 727.804 138.435C699.766 118.575 665.109 104.361 623.832 95.7944C582.944 87.2274 542.056 82.9439 501.168 82.9439H498.832C457.944 82.9439 416.861 87.2274 375.584 95.7944C334.696 104.361 300.234 118.575 272.196 138.435C244.159 158.294 230.14 184.19 230.14 216.122C230.14 248.053 244.159 273.949 272.196 293.808C300.234 313.668 334.696 327.882 375.584 336.449C416.861 345.016 457.944 349.299 498.832 349.299H501.168Z" fill="black"/>
</svg>
